<svg width="40" height="40" viewBox="0 0 40 40" fill="none" xmlns="http://www.w3.org/2000/svg">
<mask id="mask0_23_893" style="mask-type:alpha" maskUnits="userSpaceOnUse" x="0" y="0" width="40" height="40">
<circle cx="20" cy="20" r="20" fill="#D9D9D9"/>
</mask>
<g mask="url(#mask0_23_893)">
<path d="M40 0H0V40H40V0Z" fill="black"/>
<path d="M40 0H0V40H40V0Z" fill="black"/>
<path d="M7 31C9.27443 31 11.8978 31 14.3473 31C24.3264 22.4085 24.773 17.5915 14.3473 9H7C20.7879 17.3472 20.9575 22.1611 7 31Z" fill="url(#paint0_linear_23_893)"/>
</g>
<path d="M24 9C24 10.2382 24 11.6664 24 13C27.3434 11.7302 29.3498 10.97 34 13V9L24 9Z" fill="url(#paint1_linear_23_893)"/>
<path d="M9 17C9 18.5478 9 20.333 9 22C12.0719 20.8405 13.8858 19.9489 18 22V17C14.1512 18.3993 12.1895 18.3549 9 17Z" fill="url(#paint2_linear_23_893)"/>
<path d="M24 31C25.2382 31 26.6664 31 28 31V9H24V31Z" fill="url(#paint3_linear_23_893)"/>
<defs>
<linearGradient id="paint0_linear_23_893" x1="9.97341" y1="18.8997" x2="9.97341" y2="35.881" gradientUnits="userSpaceOnUse">
<stop stop-color="#42FF98"/>
<stop offset="1" stop-color="#00C7E2"/>
</linearGradient>
<linearGradient id="paint1_linear_23_893" x1="31.9999" y1="11" x2="24.2811" y2="11" gradientUnits="userSpaceOnUse">
<stop stop-color="#42FF98"/>
<stop offset="1" stop-color="#00C7E2"/>
</linearGradient>
<linearGradient id="paint2_linear_23_893" x1="16.1999" y1="19.5" x2="9.25301" y2="19.5" gradientUnits="userSpaceOnUse">
<stop stop-color="#42FF98"/>
<stop offset="1" stop-color="#00C7E2"/>
</linearGradient>
<linearGradient id="paint3_linear_23_893" x1="26.834" y1="13.4003" x2="26.834" y2="30.3815" gradientUnits="userSpaceOnUse">
<stop stop-color="#42FF98"/>
<stop offset="1" stop-color="#00C7E2"/>
</linearGradient>
</defs>
</svg>
